# xmcd CD database file
#
# Track frame offsets:
#	150
#	12888
#	27910
#	44739
#	62680
#	78336
#	96392
#
# Disc length: 1645 seconds
#
# Revision: 0
# Processed by: cddbd v1.5.2PL0 Copyright (c) Steve Scherf et al.
# Submitted via: CDex 1.51
#
DISCID=54066b07
DTITLE=Victor Feldman - Vic Feldman on Vibes
DYEAR=1957
DGENRE=Jazz
TTITLE0=Fidelius
TTITLE1=Squeeze Me
TTITLE2=Sweet and Lovely
TTITLE3=Bass Reflex
TTITLE4=Chart of My Heart
TTITLE5=Wilbert's Tune
TTITLE6=Evening in Paris
EXTD=YEAR: 1957
EXTT0=
EXTT1=
EXTT2=
EXTT3=
EXTT4=
EXTT5=
EXTT6=
PLAYORDER=
